<?xml version="1.0" standalone="no"?>
<!DOCTYPE svg PUBLIC "-//W3C//DTD SVG 20010904//EN"
 "http://www.w3.org/TR/2001/REC-SVG-20010904/DTD/svg10.dtd">
<svg version="1.0" xmlns="http://www.w3.org/2000/svg"
 width="348.000000pt" height="483.000000pt" viewBox="0 0 348.000000 483.000000"
 preserveAspectRatio="xMidYMid meet">

<g transform="translate(0.000000,483.000000) scale(0.100000,-0.100000)"
fill="#000000" stroke="none">
<path d="M905 4818 c-47 -25 -45 14 -45 -1035 0 -546 -3 -993 -7 -993 -4 0
-170 162 -368 360 -342 341 -363 360 -397 360 -28 0 -42 -7 -62 -31 l-26 -31
0 -1041 c0 -1143 -2 -1104 61 -1230 27 -54 98 -129 547 -578 555 -554 548
-548 687 -584 48 -12 131 -15 442 -15 412 0 447 3 553 52 60 28 108 74 582
547 449 449 520 524 547 578 60 120 63 151 59 622 -4 411 -5 428 -26 485 -12
33 -35 80 -52 105 -16 25 -568 585 -1227 1244 -1254 1253 -1214 1215 -1268
1185z m631 -2719 l204 -204 204 204 c203 203 204 204 253 208 33 4 59 0 79
-10 16 -9 99 -87 186 -174 l156 -158 7 -57 c10 -76 2 -328 -10 -350 -6 -9
-189 -197 -408 -417 -428 -430 -418 -422 -504 -407 -34 6 -84 53 -426 399
-213 216 -395 403 -405 416 -13 20 -17 54 -20 163 -3 76 -1 164 3 196 l7 57
151 154 c184 186 195 193 265 188 l54 -4 204 -204z"/>
</g>
</svg>
