<?xml version="1.0" standalone="no"?>
<!DOCTYPE svg PUBLIC "-//W3C//DTD SVG 20010904//EN"
 "http://www.w3.org/TR/2001/REC-SVG-20010904/DTD/svg10.dtd">
<svg version="1.0" xmlns="http://www.w3.org/2000/svg"
 width="1080.000000pt" height="1095.000000pt" viewBox="0 0 1080.000000 1095.000000"
 preserveAspectRatio="xMidYMid meet">

<g transform="translate(0.000000,1095.000000) scale(0.100000,-0.100000)"
fill="#000000" stroke="none">
<path d="M181 10934 c0 -11 3 -14 6 -6 3 7 2 16 -1 19 -3 4 -6 -2 -5 -13z"/>
<path d="M210 10928 c-8 -13 -14 -27 -15 -32 0 -5 -6 -11 -14 -14 -9 -3 -11 0
-6 8 5 8 4 11 -3 6 -6 -4 -9 -13 -6 -21 7 -17 -54 -98 -67 -90 -5 4 -6 0 -3
-8 3 -8 -8 -28 -24 -45 -16 -17 -35 -45 -42 -61 -7 -17 -16 -28 -21 -25 -5 3
-9 -113 -9 -271 l0 -275 26 6 c14 4 37 17 51 30 14 13 29 21 34 18 5 -3 9 0 9
7 0 6 8 9 19 6 14 -3 18 -1 14 9 -5 13 14 19 40 15 5 -1 6 3 3 8 -3 5 22 24
57 41 66 35 136 80 177 116 14 12 65 39 114 60 106 46 163 98 169 153 l4 36 1
-37 c2 -36 4 -38 35 -38 18 0 37 4 43 8 5 4 34 16 64 27 30 10 81 31 113 47
31 15 57 24 57 18 0 -6 -11 -16 -25 -22 -14 -6 -25 -15 -25 -20 0 -4 -5 -8
-10 -8 -19 0 -250 -168 -250 -181 0 -5 -6 -6 -14 -3 -7 3 -27 -7 -45 -21 -17
-15 -31 -23 -31 -19 0 5 -10 -7 -23 -26 -28 -42 -57 -113 -57 -140 0 -14 -7
-20 -22 -21 -22 0 -22 -1 -3 -9 11 -5 14 -9 8 -9 -7 -1 -13 -8 -13 -16 0 -8
-4 -15 -10 -15 -5 0 -7 -6 -4 -13 3 -8 -2 -34 -11 -58 -9 -24 -17 -51 -19 -59
-2 -8 -7 -28 -11 -45 -4 -16 -11 -34 -15 -40 -4 -5 -11 -30 -15 -54 -5 -31
-10 -40 -16 -30 -6 9 -7 2 -3 -18 5 -23 3 -33 -6 -33 -7 0 -10 -7 -6 -15 8
-21 -14 -65 -33 -66 -10 0 -12 -2 -3 -6 16 -6 16 -53 -1 -53 -9 0 -12 -10 -10
-32 4 -26 2 -30 -7 -18 -8 12 -9 7 -4 -21 3 -22 1 -39 -5 -43 -5 -4 -8 -12 -5
-19 7 -19 -21 -79 -48 -102 -49 -43 -71 -55 -84 -44 -9 7 -11 5 -10 -8 0 -11
-12 -24 -34 -35 -19 -9 -40 -21 -45 -26 -31 -26 -67 -44 -79 -39 -11 4 -13 1
-9 -10 5 -12 2 -15 -10 -10 -16 6 -17 -157 -17 -2314 l0 -2321 37 23 c21 13
40 26 43 29 10 14 110 80 120 80 5 0 10 5 10 10 0 6 6 10 14 10 8 0 16 3 18 8
2 4 39 27 83 52 150 85 156 87 131 26 -8 -20 -12 -36 -9 -36 3 0 1 -6 -5 -12
-5 -7 -26 -62 -47 -123 -20 -60 -55 -143 -76 -185 -61 -119 -55 -160 14 -95
20 19 39 35 42 35 3 0 34 20 71 45 36 25 67 45 70 45 2 0 22 11 44 25 22 14
42 25 45 25 3 0 5 -34 5 -75 0 -67 2 -75 19 -75 28 0 48 39 55 110 23 220 84
469 151 617 14 29 25 55 25 58 0 2 16 31 35 63 25 43 50 70 89 96 85 56 73 68
177 -160 21 -45 24 -74 8 -74 -6 0 6 -15 25 -34 20 -18 36 -40 36 -48 0 -20
97 -186 131 -226 35 -40 36 -63 5 -116 -13 -23 -27 -54 -31 -71 -5 -16 -9 -32
-10 -35 -1 -3 -5 -24 -9 -47 -6 -32 -12 -43 -26 -43 -21 0 -35 -16 -22 -24 5
-3 18 -3 29 0 15 4 25 22 38 72 22 79 59 167 76 177 18 12 138 -122 134 -149
-7 -42 -44 -153 -79 -236 -20 -47 -36 -94 -36 -105 0 -46 41 -73 154 -99 26
-6 28 -5 17 8 -8 9 -20 16 -27 16 -8 0 -22 4 -32 9 -9 5 -34 16 -54 25 -20 9
-38 22 -40 28 -6 16 124 338 136 338 8 0 55 -40 126 -110 19 -19 57 -52 83
-73 41 -33 47 -43 47 -76 0 -20 -5 -42 -11 -48 -6 -6 -9 -23 -7 -39 3 -25 6
-22 22 29 9 31 23 57 29 57 7 0 44 -25 82 -56 132 -106 401 -270 428 -261 6 2
-12 26 -39 54 -119 123 -168 178 -224 255 -33 46 -64 88 -68 93 -20 25 -129
194 -146 225 -10 19 -25 44 -32 55 -15 21 -19 59 -6 53 4 -1 66 -31 137 -66
72 -35 144 -69 160 -76 17 -8 55 -25 85 -39 61 -28 110 -47 215 -82 39 -12 90
-32 115 -42 93 -41 172 -54 327 -53 227 1 446 14 450 25 3 11 -141 97 -287
173 -187 96 -263 149 -360 249 -113 115 -199 215 -260 298 -84 116 -309 367
-324 362 -6 -2 -14 -17 -17 -33 -6 -27 -7 -27 -8 -4 0 14 -12 37 -24 50 -21
22 -22 28 -10 39 18 17 16 34 -30 296 -43 239 -59 323 -91 473 -22 105 -22
117 -9 160 13 42 20 78 36 177 3 17 15 116 26 220 12 105 26 222 32 262 5 39
10 102 9 140 0 37 6 90 13 118 8 27 15 82 16 121 2 83 -18 120 -72 127 l-32 4
33 1 c19 1 32 7 32 15 0 7 10 23 23 35 28 26 47 49 47 58 0 3 8 18 19 32 10
15 50 88 89 163 39 75 85 158 101 185 17 27 40 66 51 86 11 21 38 66 60 99 22
34 40 66 40 71 0 15 -34 45 -55 51 -19 4 -19 5 1 6 26 1 51 28 57 61 4 21 4
20 6 -7 1 -23 7 -34 22 -38 12 -4 24 -3 28 2 4 4 27 33 51 63 24 30 48 60 54
65 6 6 23 26 37 45 15 19 39 47 54 63 15 15 22 27 16 27 -16 0 -90 -34 -151
-70 -27 -16 -52 -25 -55 -20 -13 22 129 194 307 372 140 140 357 313 476 378
41 23 42 25 20 33 -13 4 -53 7 -90 6 -38 -1 -68 1 -69 5 -1 16 223 143 453
258 71 35 216 94 271 110 23 6 47 13 52 14 6 2 54 15 108 30 53 15 97 31 97
35 0 4 -45 26 -101 50 -92 39 -117 54 -107 64 8 8 272 45 395 55 155 13 403
11 498 -3 39 -5 93 -11 120 -11 l50 -1 3 66 c2 56 6 68 25 77 73 38 293 51
462 28 153 -21 175 -23 175 -19 0 2 -12 16 -26 30 -19 19 -22 28 -13 33 13 9
648 5 764 -4 39 -3 137 -11 219 -16 229 -17 421 -59 631 -140 55 -21 125 -44
155 -51 69 -15 196 -56 233 -76 54 -27 60 -102 17 -201 -25 -57 -46 -72 -105
-72 -35 0 -76 37 -90 80 -7 24 -25 27 -25 5 0 -34 -44 -98 -115 -168 -41 -40
-75 -76 -75 -80 0 -4 21 -7 48 -7 45 0 108 -23 143 -52 29 -24 39 -56 39 -127
0 -69 -1 -72 -39 -110 -41 -41 -97 -59 -130 -42 -30 17 -71 70 -71 94 -1 51
-17 45 -34 -12 -20 -68 -80 -146 -205 -267 -45 -42 -81 -81 -81 -85 0 -4 17
-1 37 8 51 21 183 29 213 13 20 -11 22 -17 17 -64 -9 -84 -92 -284 -169 -404
-23 -34 -39 -65 -36 -67 2 -3 21 10 40 28 63 58 174 128 233 147 45 15 107 15
135 0 56 -30 67 -145 23 -244 -15 -33 -42 -85 -61 -114 -18 -29 -32 -57 -30
-61 2 -5 41 16 88 47 128 84 195 120 279 149 65 23 93 27 187 28 79 0 116 -4
127 -14 22 -17 14 -30 -50 -80 -61 -48 -67 -64 -20 -50 290 89 526 137 657
134 203 -4 207 -5 150 -60 -16 -16 -30 -32 -30 -36 0 -4 35 -6 78 -4 168 9
343 -67 384 -165 18 -44 59 -234 57 -265 -2 -16 2 -39 8 -50 12 -24 40 -162
52 -261 30 -236 60 -523 66 -609 10 -155 7 -748 -4 -860 -6 -55 -17 -170 -26
-257 -8 -86 -19 -178 -25 -205 -5 -26 -14 -88 -19 -138 -25 -225 -65 -447
-116 -633 -29 -110 -33 -210 -9 -313 15 -68 16 -69 49 -69 52 0 53 21 5 176
-6 17 -10 42 -10 56 0 28 37 118 48 118 4 0 37 -28 73 -63 69 -66 115 -99 189
-139 29 -16 46 -33 48 -46 4 -25 22 -30 22 -7 0 20 11 19 92 -7 42 -14 71 -18
77 -12 5 5 -12 45 -45 99 -56 94 -58 94 -57 13 0 -10 -6 -18 -14 -18 -7 0 -13
10 -13 23 0 17 -2 19 -9 8 -8 -12 -11 -12 -23 0 -8 8 -16 19 -18 24 -1 6 -9
19 -16 30 -7 11 -20 39 -29 62 -11 28 -24 43 -38 46 -22 4 -22 4 0 6 22 1 23
4 19 69 -4 54 -3 61 5 34 5 -18 14 -30 19 -27 7 4 6 13 0 26 -6 10 -7 19 -3
19 14 0 35 -17 33 -26 -1 -5 3 -10 9 -12 14 -5 14 4 -4 83 -9 36 -13 70 -9 76
3 5 0 17 -7 25 -17 21 -25 202 -10 247 14 41 42 51 138 52 69 0 124 -40 180
-131 l43 -69 46 3 c37 3 47 9 54 28 6 16 6 33 -2 49 -7 16 -8 29 -2 35 5 5 52
14 104 20 242 30 476 142 653 314 l57 56 0 157 0 156 -47 -9 c-27 -5 -102 -9
-168 -9 -121 0 -125 1 -230 46 -11 5 -32 13 -47 19 -34 12 -37 30 -5 30 30 0
126 34 202 72 112 55 148 80 228 157 l67 65 0 102 0 101 -35 -33 c-27 -25 -35
-41 -37 -71 l-1 -38 -6 45 c-5 40 -9 45 -33 48 -16 2 -28 -1 -28 -7 0 -6 -16
-11 -36 -11 -29 0 -35 3 -30 16 3 8 2 12 -4 9 -15 -9 -12 8 6 33 14 21 14 22
-8 23 -22 1 -22 2 3 8 14 3 48 26 77 51 40 34 52 52 53 75 1 22 3 24 6 9 2
-13 14 -24 28 -26 30 -6 56 8 29 15 -16 4 -17 5 -1 6 16 1 17 19 17 220 l0
219 -42 8 c-24 4 -48 7 -54 6 -25 -5 -112 103 -167 208 -120 227 -150 265
-160 203 l-4 -28 -2 27 c0 16 -9 32 -21 38 -11 6 -20 17 -20 25 0 10 -11 16
-32 16 -31 2 -31 2 -5 6 35 5 77 47 77 76 0 17 2 19 9 8 8 -12 20 -8 67 23 54
36 123 94 148 124 6 8 23 26 37 41 41 43 62 79 55 96 -3 9 3 24 14 35 10 10
20 34 23 52 l4 33 1 -32 c2 -38 28 -45 55 -15 15 17 17 63 17 460 0 247 -4
442 -9 442 -5 0 -42 -13 -82 -30 -41 -16 -96 -35 -124 -41 -60 -15 -175 -21
-175 -10 0 5 -18 11 -40 15 -23 3 -43 13 -46 21 -4 8 -15 15 -25 15 -10 0 -19
4 -19 8 0 4 -15 13 -34 20 -18 7 -41 21 -51 32 -10 11 -24 20 -32 20 -7 0 -13
5 -13 10 0 6 -6 10 -12 10 -13 0 -53 30 -148 108 -76 63 -109 101 -112 130 -3
28 14 120 51 272 11 47 23 101 26 120 4 19 11 58 17 85 15 79 22 299 9 323
-12 22 -92 82 -110 82 -6 0 -40 18 -76 40 -36 22 -67 40 -69 40 -2 0 -42 17
-88 38 -45 22 -98 45 -115 53 -18 8 -33 18 -33 24 1 12 32 54 137 185 74 91
86 111 109 189 14 47 29 95 34 106 5 11 14 39 19 63 l9 42 -2357 0 c-1297 0
-2360 -2 -2363 -5 -3 -4 -1 -17 6 -30 8 -18 19 -25 39 -25 15 0 27 -4 27 -10
0 -5 -12 -10 -26 -10 -19 0 -28 -7 -37 -30 -6 -16 -15 -30 -20 -30 -5 0 -15
-6 -23 -14 -10 -11 -11 -15 -1 -19 20 -6 -10 -36 -32 -30 -11 3 -21 -4 -28
-19 -10 -20 -12 -17 -12 28 -1 41 -6 54 -26 72 -14 12 -25 26 -25 32 0 5 -19
11 -42 11 l-43 1 37 8 c33 6 77 42 78 63 0 4 -534 7 -1187 7 l-1188 -1 -18
-25 c-30 -40 -16 -54 55 -55 72 -1 68 -5 -14 -14 -40 -4 -58 -11 -58 -20 0 -8
-13 -24 -30 -37 -23 -16 -30 -30 -30 -54 0 -18 -4 -36 -10 -39 -6 -4 -10 8
-10 30 0 30 -8 44 -41 76 -36 35 -46 39 -92 39 -29 0 -59 5 -67 10 -11 7 -5
10 23 10 20 0 37 4 37 10 0 5 6 8 13 6 6 -1 9 -1 4 1 -13 8 -7 23 9 23 8 0 12
5 9 10 -3 6 1 10 10 10 9 0 13 5 10 10 -4 6 -125 10 -331 10 l-324 0 0 -30 c0
-25 4 -30 34 -36 19 -3 37 -13 40 -21 3 -8 9 -12 14 -9 4 2 14 1 22 -5 13 -7
12 -9 -2 -9 -20 0 -25 -30 -5 -30 8 0 7 -4 -3 -10 -12 -8 -12 -10 -1 -10 11 0
11 -3 1 -15 -10 -11 -9 -18 4 -30 9 -9 16 -12 16 -6 0 6 10 11 23 11 21 -1 22
-1 3 -15 -11 -8 -17 -16 -13 -16 4 -1 11 -2 15 -3 35 -5 47 -63 18 -91 -23
-24 -38 -54 -31 -65 3 -6 25 -10 48 -11 23 0 60 -4 82 -8 35 -8 31 -9 -37 -10
l-78 -1 -24 -38 c-13 -22 -38 -45 -55 -52 -27 -11 -31 -17 -32 -54 0 -22 -4
-61 -8 -86 -8 -40 -9 -37 -10 37 l-1 83 -40 25 c-24 15 -54 25 -77 25 -31 0
-42 6 -58 30 -17 25 -26 30 -62 30 -24 0 -43 5 -43 10 0 6 18 10 41 10 32 0
42 4 46 20 3 11 8 20 12 20 4 0 6 15 5 32 -3 37 20 98 35 98 6 0 11 5 11 10 0
6 -7 10 -15 10 -9 0 0 16 25 41 22 23 40 45 40 50 0 4 -12 10 -27 12 l-28 4
27 2 c34 1 78 44 78 76 l0 25 -130 0 c-122 0 -130 -1 -130 -19 0 -15 8 -21 38
-24 35 -3 35 -4 -9 -5 -51 -2 -84 -28 -92 -72 l-4 -25 -2 26 c-1 32 -36 57
-94 69 -28 5 -33 8 -17 9 26 1 50 17 50 33 0 4 -246 8 -548 8 l-547 0 -15 -22z
m884 -77 c5 -2 -5 -9 -22 -17 -23 -9 -38 -10 -59 -2 l-29 11 30 33 29 33 21
-27 c11 -15 25 -29 30 -31z m3947 -142 c7 -15 6 -17 -6 -13 -8 4 -15 10 -15
16 0 5 -4 6 -10 3 -5 -3 -10 1 -10 9 0 20 27 10 41 -15z m1777 -85 c9 -7 13
-18 9 -28 -11 -29 10 -56 46 -58 l32 -1 -33 -4 c-46 -6 -82 -45 -84 -91 -1
-36 -1 -36 -7 8 -6 44 -7 45 -43 48 -25 2 -38 8 -38 18 0 8 -8 14 -17 14 -14
0 -13 3 5 16 12 8 22 20 22 25 0 18 34 54 50 54 10 0 16 12 19 35 l3 35 11
-30 c6 -16 17 -35 25 -41z m-1795 36 c-4 -13 0 -20 10 -20 17 0 28 -43 20 -82
-5 -27 -4 -28 38 -30 43 -1 43 -1 7 -5 -46 -5 -95 -48 -101 -89 l-4 -29 -2 32
c-2 45 -42 83 -89 85 l-37 1 39 4 c51 6 85 44 86 96 0 21 4 36 9 33 5 -3 11 1
15 9 8 22 15 18 9 -5z m4355 -38 c13 2 16 -3 14 -22 -8 -70 -7 -74 18 -81 23
-6 23 -7 3 -8 -34 -2 -71 -45 -76 -88 l-4 -38 -1 43 c-2 47 -9 51 -43 23 -23
-18 -23 -18 -36 6 -7 14 -13 32 -13 39 0 8 -7 14 -15 14 -20 0 -19 10 3 27 13
11 14 16 4 20 -10 4 -8 9 7 20 12 8 19 18 16 23 -6 10 23 22 35 15 5 -3 11 -1
15 5 4 6 11 8 16 5 5 -4 9 4 9 17 l0 22 16 -22 c8 -12 23 -21 32 -20z m-9043
-92 c3 -6 23 -11 43 -12 l37 -1 -35 -4 c-46 -6 -60 -19 -61 -57 l-2 -31 -4 30
c-7 43 -20 55 -67 56 -32 2 -35 3 -12 6 34 5 75 49 77 83 1 16 4 10 10 -18 4
-23 11 -47 14 -52z m699 16 c-6 -15 -8 -15 -19 1 -9 12 -9 20 -1 29 14 15 29
-7 20 -30z m8203 -108 c-3 -8 -6 -5 -6 6 -1 11 2 17 5 13 3 -3 4 -12 1 -19z
m-6757 -115 c0 -21 2 -24 15 -13 11 9 15 10 15 1 0 -7 6 -19 14 -27 11 -11 16
-11 20 -1 3 6 3 -14 0 -45 l-6 -57 44 -5 c23 -3 57 -7 73 -9 17 -2 0 -5 -38
-6 -62 -1 -68 -3 -77 -26 -5 -14 -21 -30 -35 -37 -20 -9 -25 -18 -25 -50 0
-21 -4 -38 -10 -38 -5 0 -10 18 -10 40 0 22 -4 40 -9 40 -6 0 -22 11 -37 25
-26 24 -46 27 -74 11 -8 -5 -12 -6 -8 -1 13 13 -20 35 -53 35 -18 0 -29 3 -25
7 7 8 12 9 54 11 13 1 20 7 17 12 -3 6 -2 10 4 10 14 0 39 52 33 69 -3 9 1 11
17 6 15 -4 21 -3 19 7 -2 7 3 12 11 10 19 -4 51 27 51 50 0 11 5 16 10 13 6
-3 10 -18 10 -32z m5795 -44 c-7 -32 13 -41 34 -15 10 12 51 12 51 -1 0 -2 -9
-22 -20 -44 -12 -22 -18 -44 -15 -49 3 -6 25 -11 48 -12 l42 -1 -39 -4 c-40
-5 -89 -44 -107 -88 -7 -18 -8 -17 -8 7 -1 31 -26 43 -71 33 -26 -6 -30 -4
-30 15 0 12 -9 24 -21 28 -20 8 -20 8 5 20 17 8 27 22 32 47 6 31 14 40 36 36
4 0 5 5 2 12 -3 8 3 13 16 13 14 0 18 -5 15 -17 -3 -10 -1 -20 5 -24 6 -4 10
11 10 40 0 30 4 44 11 40 6 -4 7 -19 4 -36z m1065 -255 c0 -13 6 -24 13 -24 8
0 7 -4 -3 -10 -8 -5 -10 -10 -4 -10 5 0 15 5 22 12 9 9 12 9 12 0 0 -6 6 -9
14 -6 19 7 46 -23 39 -44 -3 -11 0 -9 11 6 20 26 36 29 36 6 0 -8 -4 -12 -10
-9 -5 3 -10 -3 -10 -14 0 -13 5 -19 14 -15 8 3 17 0 21 -5 3 -6 11 -9 16 -5 6
3 5 -3 -2 -13 -10 -16 -8 -23 7 -41 10 -12 24 -22 31 -22 7 0 13 -4 13 -10 0
-5 -9 -10 -20 -10 -22 0 -28 -25 -7 -33 9 -4 9 -6 0 -6 -6 -1 -14 3 -18 9 -3
6 -15 5 -31 -2 -18 -9 -27 -9 -36 0 -19 19 -43 14 -65 -12 -11 -13 -27 -26
-34 -28 -9 -3 -16 -29 -20 -79 l-6 -74 -1 71 c-2 65 -4 73 -27 88 -14 10 -31
28 -37 42 -9 18 -19 24 -44 24 -18 0 -36 5 -39 10 -4 6 9 10 33 10 32 0 41 5
50 25 17 36 16 39 -23 77 -20 19 -30 35 -23 36 42 3 67 10 88 25 14 9 19 17
13 17 -8 0 -8 6 0 24 14 29 27 24 27 -10z m-60 -22 c0 -5 -7 -9 -15 -9 -8 0
-15 4 -15 9 0 4 7 8 15 8 8 0 15 -4 15 -8z m-8576 -146 c17 4 31 -2 52 -24 16
-16 36 -31 44 -35 10 -3 7 -6 -8 -6 -13 -1 -21 -5 -18 -9 8 -13 -46 -70 -69
-74 -10 -2 -22 -14 -26 -28 -6 -22 -7 -22 -8 -4 -2 37 -46 108 -72 115 -23 7
-23 7 -2 8 33 1 73 46 75 84 l1 32 4 -33 c4 -28 7 -31 27 -26z m8814 -111 c-3
-3 -9 2 -12 12 -6 14 -5 15 5 6 7 -7 10 -15 7 -18z m-1140 -327 c28 -29 78
-87 112 -128 35 -41 78 -93 97 -115 63 -75 104 -141 98 -157 -12 -32 -312 -93
-410 -84 -75 6 -95 14 -95 35 0 22 49 99 84 131 15 14 31 33 37 42 8 16 7 17
-13 8 -48 -20 -148 -40 -231 -45 -78 -6 -88 -4 -106 14 -33 33 -26 64 27 128
82 98 211 198 277 214 60 14 72 10 123 -43z m999 -666 c20 -27 20 -31 6 -51
-11 -17 -18 -19 -28 -11 -10 8 -19 8 -33 1 -15 -8 -24 -5 -42 14 l-23 25 21
23 c12 13 19 26 16 30 -3 3 -3 10 1 16 9 16 55 -11 82 -47z m-9036 -382 c15 0
23 -4 40 -18 15 -13 14 -16 -7 -39 -13 -14 -27 -22 -33 -19 -6 4 -11 -10 -14
-31 l-4 -38 -1 42 c-1 29 -8 46 -22 56 l-20 14 20 18 c12 11 21 32 22 54 l1
36 4 -37 c2 -21 8 -38 14 -38z m1097 10 c11 0 25 -7 32 -15 10 -12 10 -15 -3
-15 -9 0 -19 -9 -22 -20 -3 -11 -12 -20 -20 -20 -7 0 -16 -8 -18 -17 -3 -10
-5 -4 -6 13 0 16 -6 35 -13 42 -9 9 -9 15 0 24 7 7 12 21 13 33 0 19 1 19 9
-2 5 -13 18 -23 28 -23z m-328 -1056 c0 -9 6 -14 13 -11 14 5 15 -9 2 -55 -4
-16 -13 -28 -21 -28 -13 0 -18 -12 -15 -32 0 -5 -10 -8 -23 -8 -14 0 -28 -4
-31 -10 -12 -20 -25 -10 -25 20 0 50 -19 80 -54 82 l-31 1 30 4 c20 3 37 14
50 34 11 16 25 27 31 25 6 -2 17 0 24 4 18 11 50 -6 50 -26z m309 -704 c10 0
24 6 30 14 18 22 51 7 58 -25 3 -16 9 -27 13 -24 4 3 10 -2 14 -10 3 -8 13
-15 23 -16 10 0 3 -5 -14 -10 -18 -5 -33 -14 -33 -20 0 -6 5 -7 11 -3 8 5 8 1
0 -14 -6 -12 -16 -24 -21 -27 -6 -4 -8 -11 -5 -16 4 -5 -1 -9 -9 -9 -9 0 -16
-7 -16 -16 0 -11 -6 -15 -18 -12 -18 5 -42 -13 -54 -41 -4 -9 -7 10 -7 42 -1
44 -4 57 -16 57 -9 0 -24 13 -33 30 -15 26 -23 30 -67 32 l-50 2 48 3 c39 3
55 11 83 38 28 29 34 42 36 82 l2 48 3 -52 c3 -43 7 -53 22 -53z m8997 -304
c-10 -51 0 -66 48 -68 l41 -1 -37 -4 c-24 -3 -49 -15 -69 -34 l-31 -29 -25 26
c-16 17 -38 28 -61 31 -43 5 -56 13 -20 13 13 0 34 10 45 23 33 37 64 58 84
60 10 1 19 5 19 9 0 4 3 8 6 8 3 0 3 -15 0 -34z m-9376 -727 c0 -5 7 -9 15 -9
9 0 25 -16 37 -36 11 -20 30 -40 42 -44 17 -7 18 -9 3 -9 -17 -1 -43 -46 -38
-66 1 -5 -7 -1 -18 9 -19 18 -22 18 -46 2 -14 -9 -25 -12 -25 -7 0 16 -49 61
-68 62 -14 1 -13 2 3 7 38 13 65 45 65 79 0 25 4 31 15 27 8 -4 15 -10 15 -15z
m9036 -54 c41 -1 48 -4 49 -23 1 -12 -2 -22 -7 -22 -10 0 -92 -52 -96 -61 -2
-5 -46 -2 -91 7 -23 5 -23 5 -5 25 16 17 16 22 4 29 -12 8 -11 10 6 10 11 0
33 14 49 30 20 21 31 27 36 18 5 -7 29 -13 55 -13z"/>
<path d="M1581 10664 c0 -11 3 -14 6 -6 3 7 2 16 -1 19 -3 4 -6 -2 -5 -13z"/>
<path d="M8070 8033 c-56 -4 -121 -23 -114 -34 3 -5 -1 -9 -9 -9 -7 0 -26 -13
-42 -30 -16 -16 -35 -30 -42 -30 -8 0 -13 -13 -13 -35 0 -19 3 -35 8 -35 4 0
34 4 67 10 114 18 251 20 520 10 306 -13 465 -30 604 -67 135 -35 141 -36 141
-27 0 13 -43 32 -235 104 -115 44 -270 81 -332 79 -34 -1 -68 2 -75 8 -19 14
-86 32 -148 38 -30 3 -65 8 -77 11 -28 5 -82 -40 -84 -70 -1 -20 -1 -20 -6 -1
-3 11 -13 28 -23 37 -10 9 -20 21 -21 27 -5 12 -54 17 -119 14z"/>
<path d="M4475 8010 c-115 -5 -148 -9 -180 -26 -33 -17 -40 -27 -43 -55 l-3
-34 203 0 c409 0 670 -30 998 -116 154 -40 258 -78 381 -139 152 -77 164 -79
99 -19 -102 94 -214 170 -355 240 -159 79 -213 98 -226 77 -7 -10 -9 -10 -9 3
0 9 -17 23 -37 32 -128 55 -294 47 -306 -15 -4 -23 -4 -23 -6 -1 -2 42 -45 53
-218 56 -87 1 -221 0 -298 -3z"/>
<path d="M3945 7975 c-60 -8 -162 -23 -225 -35 -63 -12 -131 -24 -150 -26 -19
-3 -46 -10 -60 -14 -14 -5 -41 -11 -61 -14 -102 -15 -264 -69 -406 -137 -56
-27 -108 -49 -116 -49 -8 0 -20 -7 -27 -15 -16 -19 -10 -19 37 0 97 38 463
117 668 145 39 5 117 16 175 24 58 8 177 20 265 26 88 7 167 13 175 13 9 1 16
15 18 34 6 63 -67 75 -293 48z"/>
<path d="M7720 7926 c-119 -42 -322 -156 -360 -201 -18 -21 -10 -20 109 24
108 39 210 69 314 92 l57 12 0 38 c0 28 -5 41 -19 49 -25 13 -23 13 -101 -14z"/>
<path d="M4775 7121 c6 -6 26 -13 45 -16 42 -7 21 8 -25 19 -21 5 -27 4 -20
-3z"/>
<path d="M4860 7096 c0 -2 33 -14 73 -26 39 -12 93 -31 118 -41 25 -10 68 -26
95 -35 27 -9 51 -20 54 -24 3 -4 23 -13 45 -20 22 -7 49 -19 60 -26 11 -8 26
-14 35 -14 21 1 -13 27 -60 47 -19 8 -53 23 -75 33 -22 10 -60 25 -85 33 -25
8 -58 22 -75 31 -16 9 -40 16 -53 16 -12 0 -39 7 -59 15 -33 14 -73 20 -73 11z"/>
<path d="M7607 7019 c-22 -11 -37 -22 -35 -24 2 -3 26 7 53 20 26 14 42 25 34
25 -8 -1 -31 -10 -52 -21z"/>
<path d="M7317 6973 c-4 -3 -7 -11 -7 -17 0 -6 5 -5 12 2 6 6 9 14 7 17 -3 3
-9 2 -12 -2z"/>
<path d="M7505 6959 c-16 -10 -25 -19 -20 -19 6 0 24 9 40 20 17 11 26 20 20
19 -5 0 -23 -9 -40 -20z"/>
<path d="M7245 6930 c-67 -44 -96 -68 -124 -103 -12 -15 -12 -17 2 -11 8 3 18
12 21 20 3 8 11 14 17 14 6 0 19 8 28 18 9 9 27 23 41 30 14 7 36 22 50 32 34
26 5 26 -35 0z"/>
<path d="M7430 6914 l-25 -25 32 18 c18 10 33 21 33 26 0 13 -15 6 -40 -19z"/>
<path d="M7350 6855 c-19 -14 -38 -32 -43 -42 -6 -9 11 1 37 22 41 35 52 46
44 45 -2 -1 -19 -12 -38 -25z"/>
<path d="M4265 6819 c-273 -64 -773 -322 -987 -510 -62 -54 -66 -75 -15 -82
l32 -4 -31 -1 c-21 -2 -35 -9 -44 -27 -7 -14 -17 -25 -22 -25 -4 0 -8 -10 -9
-22 l0 -23 -9 23 c-12 29 -36 38 -56 22 -11 -10 -12 -15 -3 -21 8 -5 1 -24
-25 -67 -20 -33 -36 -64 -36 -69 0 -5 -13 -34 -29 -64 -16 -30 -42 -90 -56
-133 -15 -44 -35 -101 -46 -128 -31 -79 -60 -218 -46 -218 5 0 136 189 182
263 76 122 269 338 355 397 19 13 37 27 40 31 3 3 23 18 45 32 22 15 59 40 83
57 23 16 45 30 47 30 3 0 40 22 83 48 82 51 310 162 334 162 8 0 18 4 24 9 16
15 176 60 253 72 147 22 427 -33 631 -123 30 -14 107 -65 170 -115 139 -109
326 -246 358 -262 13 -7 26 -10 29 -7 8 8 -162 338 -178 344 -5 2 -9 9 -9 15
0 7 -16 37 -35 67 -30 47 -41 56 -73 61 l-37 6 43 2 c23 0 42 5 42 10 0 5 2
16 6 24 6 15 -98 98 -171 136 -49 25 -236 65 -405 86 -135 16 -371 19 -435 4z"/>
<path d="M9090 6823 c0 -9 40 -36 45 -31 2 2 -8 11 -21 21 -13 10 -24 14 -24
10z"/>
<path d="M7860 6785 c-47 -7 -125 -23 -175 -35 -101 -25 -291 -96 -301 -112
-4 -6 -2 -8 4 -4 6 3 14 1 17 -4 4 -6 -14 -38 -40 -71 -52 -66 -150 -233 -171
-291 -8 -24 -9 -40 -3 -44 6 -4 6 -11 -2 -20 -7 -9 -8 -14 -1 -14 6 0 12 4 14
8 2 5 44 39 93 76 50 37 98 73 107 81 36 29 177 105 258 138 135 56 269 80
445 81 171 1 198 -6 380 -95 161 -80 183 -96 325 -238 162 -162 230 -243 328
-385 70 -102 101 -132 87 -83 -59 191 -126 377 -169 467 -13 27 -22 58 -19 68
3 13 -23 44 -90 107 -88 84 -248 215 -262 215 -3 0 -32 17 -63 38 -31 21 -102
58 -157 82 l-100 44 -210 2 c-133 1 -241 -3 -295 -11z"/>
<path d="M7066 6774 c-5 -14 -4 -15 9 -4 17 14 19 20 6 20 -5 0 -12 -7 -15
-16z"/>
<path d="M5610 6682 c0 -4 10 -13 23 -21 22 -14 22 -14 3 8 -20 22 -26 25 -26
13z"/>
<path d="M5660 6631 c0 -6 5 -11 10 -11 6 0 10 -7 10 -15 0 -8 5 -15 10 -15 6
0 10 -6 10 -12 1 -7 12 -26 25 -43 36 -43 32 -8 -3 41 -34 46 -62 71 -62 55z"/>
<path d="M10792 6590 c0 -19 2 -27 5 -17 2 9 2 25 0 35 -3 9 -5 1 -5 -18z"/>
<path d="M7299 6573 c-13 -16 -12 -17 4 -4 9 7 17 15 17 17 0 8 -8 3 -21 -13z"/>
<path d="M7244 6539 c-19 -22 -19 -22 3 -10 24 12 39 31 25 31 -5 0 -17 -10
-28 -21z"/>
<path d="M7194 6488 l-19 -23 23 19 c21 18 27 26 19 26 -2 0 -12 -10 -23 -22z"/>
<path d="M7903 6303 c-23 -4 -237 -116 -263 -137 -8 -7 -35 -24 -60 -38 -25
-15 -57 -39 -72 -55 -43 -45 -179 -349 -214 -478 -20 -74 -17 -144 10 -232 13
-43 27 -94 31 -113 13 -66 74 -190 112 -228 53 -53 185 -151 273 -203 41 -24
84 -49 95 -56 11 -7 27 -15 35 -19 8 -4 28 -17 45 -28 73 -51 277 -17 596 98
45 17 137 98 177 157 9 14 28 36 40 50 49 50 83 147 117 334 2 11 12 61 21
110 30 151 26 182 -38 330 -77 178 -124 275 -151 308 -16 21 -50 37 -137 66
-63 22 -139 42 -167 46 -49 6 -55 5 -82 -23 -18 -17 -31 -43 -34 -63 l-4 -34
-1 31 c-2 35 -45 88 -77 97 -18 4 -17 5 3 6 12 0 22 5 22 11 0 16 -68 40 -144
51 -39 5 -80 11 -91 13 -11 1 -30 1 -42 -1z m279 -606 c42 -20 82 -46 88 -58
7 -11 16 -48 20 -81 11 -77 37 -107 94 -110 l41 -1 -44 -4 c-47 -5 -92 -39
-110 -85 l-10 -23 0 23 c-1 21 -4 20 -52 -18 -50 -40 -52 -40 -136 -40 -46 0
-93 5 -103 10 -10 6 -31 33 -46 60 -38 69 -54 66 -56 -12 l-2 -63 -3 58 c-4
51 -9 63 -38 93 -30 29 -42 34 -87 36 l-53 2 53 3 c45 4 59 10 88 38 30 30 34
41 36 92 l2 58 3 -48 4 -48 36 48 c51 69 85 104 107 112 29 11 82 -2 168 -42z"/>
<path d="M4125 6255 c-49 -26 -102 -56 -117 -66 -14 -11 -29 -19 -32 -19 -4 0
-12 -4 -19 -10 -22 -18 -101 -75 -131 -94 -16 -10 -66 -54 -111 -97 -78 -75
-83 -82 -98 -147 -58 -242 -87 -409 -87 -508 0 -74 3 -85 33 -135 120 -194
274 -401 320 -430 18 -10 86 -40 152 -65 66 -26 134 -52 152 -60 38 -17 313
-19 413 -4 93 15 217 58 275 95 48 31 212 173 267 231 39 42 56 99 83 284 32
217 32 301 -1 415 -41 142 -62 202 -117 325 -71 160 -94 179 -262 223 -125 32
-175 36 -208 14 -24 -15 -27 -15 -50 3 -14 11 -33 20 -44 21 -13 1 -11 3 7 9
l25 7 -30 8 c-16 4 -52 14 -80 22 -27 8 -95 17 -150 20 l-100 5 -90 -47z m468
-559 c32 -7 66 -21 77 -31 27 -24 43 -108 38 -199 l-3 -78 -47 -41 c-92 -84
-116 -97 -177 -97 -115 0 -126 5 -170 79 -22 36 -43 75 -48 86 -7 18 -8 17
-14 -10 l-7 -30 -1 33 c-1 21 -10 41 -26 56 l-25 23 25 23 c17 16 26 36 27 59
l1 36 4 -32 c2 -18 7 -33 11 -33 9 0 42 37 42 46 0 7 80 106 95 116 17 12 136
9 198 -6z"/>
<path d="M9131 6205 c12 -19 25 -35 30 -35 6 0 -2 16 -17 35 -14 19 -28 35
-30 35 -2 0 6 -16 17 -35z"/>
<path d="M7120 6135 c-7 -9 -11 -18 -8 -20 3 -3 11 1 18 10 7 9 11 18 8 20 -3
3 -11 -1 -18 -10z"/>
<path d="M9180 6141 c0 -6 4 -13 10 -16 6 -3 7 1 4 9 -7 18 -14 21 -14 7z"/>
<path d="M9280 6002 c6 -13 14 -21 18 -18 3 4 -2 14 -12 24 -18 16 -18 16 -6
-6z"/>
<path d="M9906 5118 c3 -13 15 -40 26 -61 19 -38 81 -234 114 -362 14 -52 18
-107 18 -215 0 -126 -4 -159 -27 -248 -26 -96 -101 -302 -134 -366 -30 -58
-109 -156 -254 -313 -228 -247 -324 -322 -435 -339 -56 -8 -67 2 -49 41 26 56
73 209 95 310 15 70 23 148 27 260 6 183 -4 234 -47 246 -21 6 -22 7 -4 8 11
1 26 11 32 24 16 33 23 115 12 135 -6 9 -19 49 -28 87 l-18 70 -38 3 c-33 3
-37 1 -32 -15 17 -54 37 -319 36 -482 -1 -316 -23 -413 -150 -676 -57 -119
-288 -461 -362 -537 -13 -13 -39 -43 -59 -68 -54 -66 -152 -165 -249 -250 -96
-85 -101 -91 -96 -106 3 -7 -8 -23 -23 -37 -23 -20 -29 -22 -37 -10 -7 11 -28
1 -102 -49 -115 -78 -154 -103 -267 -169 -49 -29 -99 -61 -109 -71 -11 -10
-24 -18 -28 -18 -5 0 -35 -17 -66 -38 -31 -22 -122 -72 -202 -113 -80 -40
-147 -76 -150 -79 -14 -15 -320 -160 -525 -249 -27 -12 -102 -33 -165 -46 -97
-21 -135 -24 -240 -20 -69 2 -150 9 -180 15 -209 40 -352 74 -600 143 -114 31
-250 57 -208 39 15 -6 13 -9 -12 -20 -21 -10 -30 -21 -33 -45 l-4 -32 -1 31
c-2 21 -9 35 -27 44 -24 13 -24 13 -5 30 32 27 40 23 -310 147 -293 103 -340
119 -425 153 -160 62 -254 104 -435 196 -102 51 -195 96 -207 99 -21 6 -23 3
-23 -33 0 -44 8 -56 26 -42 12 11 103 -33 404 -194 130 -69 374 -191 460 -230
36 -16 81 -36 100 -44 19 -9 37 -18 40 -22 9 -9 168 -77 430 -182 41 -16 116
-47 165 -68 86 -37 231 -90 305 -112 19 -5 40 -14 45 -18 6 -4 28 -13 50 -19
22 -7 47 -15 55 -18 8 -3 20 -7 25 -8 6 -2 44 -14 85 -28 121 -40 177 -50 254
-45 62 4 88 13 190 62 66 32 133 68 151 82 18 13 35 24 39 24 4 0 27 14 51 30
24 17 47 30 50 30 8 0 2 -34 -10 -62 -4 -10 -3 -18 2 -18 6 0 15 17 21 39 11
35 93 131 113 131 4 0 14 6 21 13 45 43 154 95 170 79 10 -10 -6 -336 -17
-364 -16 -40 29 -15 98 55 78 77 131 166 121 204 -5 19 -8 20 -20 8 -8 -7 -14
-16 -14 -20 0 -15 -75 -165 -82 -165 -5 0 -22 -15 -38 -32 -39 -43 -48 -28
-38 59 4 38 11 113 15 168 l8 100 80 40 c44 22 82 43 83 47 7 16 37 6 133 -44
109 -58 119 -70 144 -176 17 -68 49 -277 64 -422 21 -191 37 -280 53 -295 10
-10 9 -1 -12 105 -14 67 -26 173 -22 191 3 19 43 29 113 29 48 0 49 1 49 30 0
17 -4 30 -10 30 -5 0 -20 12 -33 26 -16 17 -40 28 -73 33 -30 5 -38 9 -21 10
26 1 27 3 27 54 0 28 -7 106 -15 172 -27 226 -41 268 -100 305 -36 22 -49 48
-17 35 38 -16 146 -22 307 -18 94 2 181 5 195 8 14 2 43 6 65 9 71 11 95 17
90 26 -3 5 -38 25 -79 44 -85 41 -166 110 -202 173 -26 43 -26 44 -8 58 11 8
29 18 42 21 12 3 22 10 22 15 0 5 5 9 12 9 11 0 67 40 174 125 28 22 64 50 80
62 63 46 170 126 182 136 11 9 13 -7 12 -84 -1 -52 -1 -146 0 -209 2 -90 4
-104 10 -65 11 81 65 171 153 254 74 69 79 72 100 58 32 -22 26 -62 -21 -132
-45 -68 -102 -170 -102 -182 0 -4 10 8 22 27 13 19 27 40 33 46 5 7 33 48 60
93 45 72 70 99 82 88 2 -3 -10 -42 -26 -88 -53 -151 -83 -251 -77 -256 3 -3 8
3 12 13 3 10 14 42 24 69 10 28 33 96 51 152 33 103 48 121 86 106 14 -5 15
-24 9 -137 -15 -313 -19 -543 -8 -550 17 -10 21 36 27 369 7 307 10 330 41
318 7 -2 26 5 42 17 17 12 35 19 42 15 6 -4 47 -81 91 -172 44 -91 83 -163 85
-160 3 3 -19 56 -49 118 -101 212 -107 226 -107 242 0 25 31 20 63 -9 39 -36
43 -25 7 17 -50 58 -37 113 27 111 83 -3 113 -12 119 -39 15 -57 22 10 23 217
1 119 -1 224 -5 234 -6 15 -25 17 -181 16 -96 -1 -177 1 -180 3 -3 3 16 38 41
77 25 39 46 75 46 80 0 6 4 10 9 10 5 0 12 11 15 24 5 21 16 27 64 36 31 7 75
20 97 30 23 10 54 22 70 25 17 4 66 25 110 46 73 35 97 54 243 201 89 90 169
172 177 183 59 78 101 130 107 133 5 2 8 7 8 12 0 5 17 35 38 67 94 143 158
310 203 527 31 153 18 417 -25 511 -8 17 -23 57 -35 90 -26 77 -80 177 -92
169 -5 -3 -23 8 -40 25 -22 23 -40 31 -65 31 -32 0 -35 -2 -28 -22z m-666
-2467 c0 -13 -18 -30 -54 -50 -29 -17 -56 -31 -59 -31 -8 0 -87 84 -87 93 0 4
45 7 100 7 92 0 100 -2 100 -19z m-430 3 c0 -3 -20 -29 -45 -56 -25 -28 -45
-60 -45 -72 0 -56 -10 -66 -59 -66 -26 0 -51 3 -55 7 -9 9 174 192 192 193 6
0 12 -3 12 -6z m508 -66 c5 -27 -18 -98 -39 -119 -14 -14 -33 -19 -78 -19
l-58 0 -7 41 c-5 32 -3 46 11 61 45 50 164 75 171 36z m-592 -199 l12 -40 -81
-84 c-55 -57 -89 -85 -104 -85 -22 0 -23 3 -23 108 0 138 5 145 97 152 37 3
72 2 78 -2 5 -5 15 -26 21 -49z"/>
<path d="M962 4975 c-7 -14 -12 -34 -12 -43 0 -10 -4 -22 -9 -27 -13 -15 -58
-213 -65 -285 -5 -57 -2 -51 23 55 15 66 40 164 56 218 27 95 30 133 7 82z"/>
<path d="M1007 4889 c-11 -29 -20 -93 -24 -152 -5 -102 -5 -102 24 -132 34
-37 115 -87 168 -106 22 -7 44 -17 50 -21 13 -11 25 -10 25 2 0 6 -21 20 -47
30 -27 11 -56 25 -66 31 -10 5 -37 20 -59 31 -22 12 -49 35 -60 52 -22 35 -21
75 7 274 3 23 5 42 3 42 -2 0 -11 -23 -21 -51z"/>
<path d="M7650 4496 c9 -9 52 -24 95 -33 108 -22 578 -25 643 -4 23 8 42 18
42 22 0 5 -133 8 -295 8 -163 0 -299 2 -303 5 -4 2 -50 7 -102 11 -87 7 -94 6
-80 -9z"/>
<path d="M4750 4464 c-47 -8 -123 -18 -170 -23 -93 -10 -581 -7 -645 5 -52 9
-37 -7 30 -32 45 -17 81 -19 365 -19 298 0 319 1 385 22 39 12 89 27 113 33
23 6 42 15 42 20 0 12 -10 11 -120 -6z"/>
<path d="M9541 4441 c-1 -8 -8 -22 -17 -32 -9 -10 -14 -24 -12 -31 3 -8 12 1
22 20 9 18 15 39 12 45 -3 8 -5 7 -5 -2z"/>
<path d="M616 4313 c6 -80 29 -208 40 -225 3 -5 19 3 35 18 33 32 36 59 15
144 -23 94 -50 140 -80 140 -15 0 -16 -9 -10 -77z"/>
<path d="M9627 4307 c-9 -47 -20 -93 -23 -104 -5 -12 -4 -15 4 -8 10 10 44
115 37 115 -3 0 -1 10 4 23 5 12 5 31 2 41 -5 13 -13 -10 -24 -67z"/>
<path d="M9448 4373 c7 -3 16 -2 19 1 4 3 -2 6 -13 5 -11 0 -14 -3 -6 -6z"/>
<path d="M1050 4293 c0 -5 11 -20 25 -33 14 -13 25 -19 25 -13 0 5 -11 20 -25
33 -14 13 -25 19 -25 13z"/>
<path d="M1130 4200 c0 -5 5 -10 11 -10 5 0 7 5 4 10 -3 6 -8 10 -11 10 -2 0
-4 -4 -4 -10z"/>
<path d="M1150 4173 c0 -7 5 -13 10 -13 6 0 10 -4 10 -9 0 -11 94 -166 112
-186 7 -7 31 -36 53 -64 64 -80 62 -59 -2 27 -65 85 -113 157 -113 169 -1 14
-70 88 -70 76z"/>
<path d="M9571 4118 c-10 -26 -61 -138 -69 -153 -3 -5 2 -4 11 4 9 7 17 17 17
22 0 5 11 32 24 61 28 63 37 88 30 88 -2 0 -8 -10 -13 -22z"/>
<path d="M665 3988 c10 -130 25 -200 50 -243 31 -54 260 -275 284 -275 5 0 16
-6 23 -13 26 -25 150 -106 278 -183 52 -32 97 -60 100 -64 9 -12 128 -89 185
-121 111 -61 373 -121 500 -115 28 1 30 -1 31 -39 2 -64 3 -64 -114 -64 -59 0
-158 0 -219 -1 l-113 0 0 -295 c0 -283 1 -295 19 -295 25 0 35 28 16 46 -10
11 -15 36 -15 78 0 91 14 101 137 99 52 0 97 -3 100 -6 3 -3 6 -20 6 -38 2
-30 -2 -34 -70 -68 -79 -39 -112 -64 -73 -54 12 3 49 19 82 35 69 33 103 36
118 8 9 -18 4 -31 -35 -86 -25 -36 -71 -98 -103 -136 -65 -80 -132 -170 -132
-178 0 -7 21 17 109 125 45 55 102 125 127 155 24 30 50 64 58 74 18 26 39 11
33 -23 -2 -14 -19 -64 -37 -111 -42 -112 -60 -170 -51 -170 3 0 17 28 29 63
57 151 88 221 100 225 9 3 12 -36 13 -170 1 -95 5 -184 9 -198 5 -15 8 58 9
172 1 108 5 199 10 203 17 10 39 -24 55 -83 33 -116 96 -296 91 -259 -4 37
-23 106 -70 255 -14 43 -19 75 -13 78 5 3 11 4 12 3 2 -2 49 -66 105 -143 137
-187 151 -231 151 -473 0 -104 4 -174 10 -178 6 -4 10 41 11 127 2 196 -2 273
-12 276 -6 3 -5 9 1 17 6 7 12 53 14 102 1 49 6 87 11 87 197 -30 361 -31 469
-3 39 10 73 19 75 19 2 0 0 -12 -4 -27 -9 -40 -62 -120 -119 -180 -60 -65 -55
-68 92 -59 98 7 109 10 130 33 15 18 22 40 23 72 1 42 2 43 9 16 4 -17 8 -22
9 -12 0 11 10 32 22 48 23 32 42 39 235 79 l132 27 5 -71 c12 -140 20 -355 13
-371 -5 -14 -10 -13 -36 12 -17 15 -30 31 -30 34 0 4 -15 23 -32 42 -18 19
-38 41 -43 48 -17 24 -49 74 -51 79 -11 50 -30 100 -37 100 -12 0 -2 -111 10
-119 5 -3 22 -28 37 -55 40 -69 136 -186 152 -186 8 0 14 -6 14 -13 0 -7 9
-13 19 -14 20 -2 61 -36 61 -51 0 -4 12 -12 28 -18 42 -17 132 -87 132 -104 0
-11 2 -12 8 -3 6 9 15 5 36 -13 23 -22 139 -105 194 -139 9 -5 21 -14 27 -20
7 -5 58 -39 114 -75 56 -36 145 -94 199 -128 53 -35 106 -68 117 -73 11 -5 27
-13 35 -18 43 -28 363 -171 380 -171 15 0 159 -48 184 -62 10 -5 55 -21 100
-35 246 -74 310 -93 396 -118 52 -15 109 -34 125 -41 17 -7 50 -18 75 -24 25
-7 73 -25 107 -41 34 -16 68 -29 76 -29 8 0 26 -10 41 -21 15 -12 30 -19 33
-15 7 7 11 4 -52 44 -28 17 -93 45 -145 62 -52 17 -103 35 -112 41 -10 5 -27
9 -37 9 -11 0 -22 4 -25 9 -3 5 -27 14 -53 20 -27 6 -79 21 -118 32 -38 11
-88 25 -110 32 -22 6 -94 30 -160 54 -66 24 -132 46 -147 48 -14 3 -47 14 -73
25 -26 11 -54 20 -63 20 -32 0 -134 83 -281 228 -136 135 -223 210 -181 156
18 -23 96 -99 224 -219 52 -49 96 -93 96 -97 0 -11 -27 -10 -48 1 -9 5 -46 23
-82 40 -36 17 -96 49 -135 71 -38 21 -83 47 -100 56 -16 9 -32 20 -35 23 -3 3
-17 13 -32 21 -14 8 -74 48 -133 87 -58 40 -110 73 -114 73 -4 0 -16 9 -26 20
-10 11 -22 20 -28 20 -5 0 -31 18 -57 40 -26 22 -53 40 -59 40 -6 0 -11 3 -11
8 0 4 -21 20 -48 37 -26 16 -56 37 -66 47 -11 10 -38 30 -60 45 -83 56 -156
115 -165 131 -4 9 -11 116 -15 237 -4 138 -12 239 -20 270 -8 28 -15 43 -16
35 -1 -8 -5 -4 -9 10 -5 20 -15 26 -46 31 l-40 5 40 5 c35 3 41 8 45 32 l5 28
90 -46 c50 -26 95 -50 100 -54 6 -4 28 -4 49 -1 l39 5 -71 48 c-40 26 -75 47
-79 47 -30 0 -333 237 -488 380 -33 31 -96 90 -140 131 -44 41 -138 140 -210
221 -71 81 -137 150 -146 153 -9 3 -47 -6 -85 -21 -186 -70 -247 -84 -379 -87
l-100 -2 -3 72 c-4 104 9 144 56 166 51 24 75 61 80 122 3 39 -1 62 -17 92
-30 61 -64 83 -124 83 -158 0 -218 -209 -85 -290 18 -11 41 -20 50 -20 14 0
17 -15 20 -106 2 -58 0 -111 -3 -116 -8 -12 -183 6 -273 29 -32 8 -122 45
-200 83 -125 60 -212 100 -222 100 -1 0 -9 -7 -17 -15 -14 -13 -19 -11 -47 15
-18 17 -40 30 -49 31 -10 1 -8 3 6 7 36 11 42 5 -199 173 -48 33 -119 92 -159
132 -76 75 -105 127 -156 277 -36 104 -50 120 -71 78 l-11 -23 0 22 c-1 20
-43 73 -57 73 -4 0 -3 -37 1 -82z m2045 -866 c0 -4 22 -32 50 -62 l50 -55 0
-72 c0 -125 -46 -223 -157 -330 -72 -70 -154 -128 -162 -114 -3 5 -5 87 -5
183 1 95 -2 178 -7 184 -6 7 -65 12 -161 13 -83 1 -155 4 -160 7 -13 8 -9 71
5 82 7 6 43 16 80 22 37 6 91 19 120 29 28 10 81 28 117 39 36 11 94 34 130
51 64 30 100 38 100 23z m-667 -408 c7 -7 -89 -94 -105 -94 -21 0 -149 81
-143 91 7 10 238 13 248 3z m365 -15 c-2 -14 -20 -31 -51 -47 l-47 -26 -35 39
c-19 22 -35 43 -35 48 0 4 39 7 86 7 82 0 85 -1 82 -21z m-590 -44 c90 -47
115 -68 110 -91 -3 -17 -14 -19 -100 -22 -87 -2 -100 0 -118 18 -38 38 -20
130 26 130 8 0 45 -16 82 -35z m640 -47 c3 -66 -2 -71 -86 -82 l-53 -7 3 43
c3 39 8 46 52 76 68 45 80 40 84 -30z m-10 -125 c6 -9 12 -45 12 -80 0 -78 -9
-80 -91 -20 -59 42 -70 66 -53 111 9 22 113 13 132 -11z m-97 -115 c88 -63
109 -109 108 -243 l0 -100 -30 35 c-17 19 -51 67 -76 105 -26 39 -60 85 -76
104 -16 18 -34 45 -40 58 -10 23 -8 28 18 49 38 31 43 30 96 -8z"/>
<path d="M1835 4040 c9 -16 20 -30 25 -30 5 0 1 13 -8 30 -22 39 -37 39 -17 0z"/>
<path d="M1919 3947 c7 -10 19 -17 26 -17 12 0 51 -38 44 -43 -2 -2 -15 -8
-29 -14 -22 -10 -18 -12 35 -12 97 -1 99 12 9 55 -102 50 -101 50 -85 31z"/>
<path d="M1899 3866 c-2 -2 -37 -7 -78 -10 -41 -4 -77 -8 -80 -11 -4 -2 -34
-7 -66 -10 -33 -4 -67 -11 -75 -16 -10 -6 -4 -8 20 -5 181 20 366 54 299 56
-9 0 -18 -2 -20 -4z"/>
<path d="M1533 3813 c9 -2 25 -2 35 0 9 3 1 5 -18 5 -19 0 -27 -2 -17 -5z"/>
<path d="M6428 2983 c7 -3 16 -2 19 1 4 3 -2 6 -13 5 -11 0 -14 -3 -6 -6z"/>
<path d="M6120 2880 c-8 -5 -10 -10 -5 -10 6 0 17 5 25 10 8 5 11 10 5 10 -5
0 -17 -5 -25 -10z"/>
<path d="M1668 2158 c-5 -203 3 -248 36 -195 8 13 8 20 -2 26 -11 6 -13 39
-10 145 2 100 0 136 -9 136 -8 0 -13 -34 -15 -112z"/>
<path d="M3810 2183 c19 -8 45 -24 58 -36 14 -13 22 -16 22 -8 0 28 -44 61
-80 60 l-35 -1 35 -15z"/>
<path d="M9291 2164 c0 -11 3 -14 6 -6 3 7 2 16 -1 19 -3 4 -6 -2 -5 -13z"/>
<path d="M9021 2160 c-1 -14 19 -95 65 -270 10 -35 20 -58 22 -51 2 7 -5 52
-17 99 -42 166 -69 253 -70 222z"/>
<path d="M3957 2035 c25 -35 67 -79 144 -152 30 -28 72 -70 93 -92 21 -23 41
-39 44 -36 3 2 -29 40 -71 82 -42 43 -103 105 -134 138 -32 33 -67 67 -78 75
-17 14 -17 12 2 -15z"/>
<path d="M1937 1995 c-5 -16 -19 -58 -33 -93 -14 -35 -24 -68 -22 -73 6 -19
69 143 66 169 l-3 27 -8 -30z"/>
<path d="M2285 1915 c5 -35 28 -126 43 -176 6 -18 24 -76 39 -126 15 -52 33
-93 40 -93 7 0 10 6 8 13 -2 6 -25 84 -50 171 -46 160 -89 275 -80 211z"/>
<path d="M3020 1867 c0 -8 -11 -41 -25 -73 -14 -33 -29 -68 -34 -79 -5 -11
-22 -47 -39 -80 -16 -33 -35 -78 -42 -100 -7 -22 -23 -59 -36 -81 -13 -23 -31
-63 -40 -90 -9 -26 -37 -90 -62 -141 -51 -104 -51 -105 -127 -53 -22 15 -59
34 -83 41 -23 6 -43 17 -43 23 -3 24 -7 115 -8 191 -2 74 -3 79 -17 60 -15
-20 -15 -20 -34 3 -17 20 -47 32 -37 15 3 -5 2 -16 -2 -25 -5 -15 -12 -12 -46
21 -51 48 -119 87 -168 95 -48 9 -52 18 -56 149 -2 66 -17 59 -23 -10 -7 -71
-40 -131 -77 -140 -34 -8 -109 -51 -149 -85 -45 -38 -40 -44 9 -8 64 46 141
70 229 72 65 2 85 -2 132 -25 69 -34 119 -84 168 -167 l38 -65 6 -194 6 -194
-207 7 c-115 3 -290 7 -390 8 l-183 2 0 118 c0 72 -4 118 -10 118 -6 0 -10
-78 -10 -214 0 -220 -3 -246 -25 -246 -7 0 -15 -4 -17 -9 -1 -4 -25 -19 -53
-33 -78 -39 -179 -92 -185 -98 -3 -3 -32 -18 -65 -35 -32 -16 -92 -49 -132
-72 -41 -24 -75 -43 -78 -43 -2 0 -50 -28 -107 -63 -57 -35 -114 -70 -127 -78
-13 -8 -53 -33 -89 -56 -36 -24 -70 -43 -76 -43 -6 0 -22 -9 -36 -20 l-25 -20
121 0 121 0 154 88 c85 49 222 124 304 167 83 43 161 86 175 95 53 37 138 67
203 74 82 8 97 16 126 70 12 22 32 53 44 68 l22 27 278 2 c234 1 279 3 284 16
3 8 1 19 -6 26 -8 8 -11 6 -11 -7 0 -16 -5 -14 -29 12 -16 16 -38 32 -48 35
-16 4 -16 5 -1 6 9 0 29 13 45 27 15 14 29 21 31 15 2 -6 8 -11 13 -11 5 0 9
41 9 90 l0 90 28 0 c41 0 181 -37 209 -55 l23 -16 -20 -39 c-11 -22 -20 -53
-20 -70 0 -48 91 -276 177 -445 110 -216 138 -265 151 -265 15 0 9 13 -50 106
-21 34 -38 66 -38 72 0 6 -10 28 -22 49 -35 62 -48 88 -48 95 0 4 -11 31 -24
60 -45 101 -93 213 -106 248 -7 19 -17 39 -22 45 -16 18 -7 58 22 95 57 72
110 210 81 210 -18 0 -18 40 0 61 10 12 19 17 19 12 0 -6 7 -13 14 -16 10 -4
25 10 44 41 71 115 223 530 226 616 1 31 0 31 -51 34 -41 2 -53 0 -53 -11z"/>
<path d="M1668 1795 c-4 -139 -4 -180 1 -200 9 -39 19 26 20 135 1 121 -17
178 -21 65z"/>
<path d="M8500 1809 c-1 -24 -3 -83 -6 -131 -7 -105 10 -122 20 -19 3 37 13
87 21 111 18 51 19 64 3 54 -6 -4 -17 1 -25 11 -12 17 -13 14 -13 -26z"/>
<path d="M8671 1728 c-22 -68 -41 -130 -41 -138 0 -28 18 5 38 71 11 36 27 81
34 100 21 50 30 89 20 89 -5 0 -28 -55 -51 -122z"/>
<path d="M9291 1834 c0 -11 3 -14 6 -6 3 7 2 16 -1 19 -3 4 -6 -2 -5 -13z"/>
<path d="M9301 1707 c-1 -63 3 -96 9 -92 12 7 12 142 0 170 -6 13 -9 -14 -9
-78z"/>
<path d="M1840 1735 c-5 -14 -12 -38 -15 -53 l-6 -27 14 25 c16 28 30 80 22
80 -3 0 -10 -11 -15 -25z"/>
<path d="M9136 1715 c6 -40 11 -52 18 -44 2 2 -3 22 -10 44 l-13 40 5 -40z"/>
<path d="M4266 1717 c3 -9 14 -19 25 -22 11 -4 17 -10 14 -15 -3 -4 2 -11 11
-14 25 -10 11 15 -24 42 -23 17 -31 20 -26 9z"/>
<path d="M9150 1650 c0 -5 5 -10 11 -10 5 0 7 5 4 10 -3 6 -8 10 -11 10 -2 0
-4 -4 -4 -10z"/>
<path d="M1806 1635 c-3 -9 -6 -22 -5 -28 0 -7 5 -1 10 12 5 13 8 26 5 28 -2
2 -6 -3 -10 -12z"/>
<path d="M4380 1606 c25 -24 47 -42 49 -40 6 5 -75 84 -86 84 -4 0 12 -20 37
-44z"/>
<path d="M9174 1575 c2 -11 7 -35 11 -52 4 -18 10 -35 15 -38 10 -6 -7 73 -21
94 -8 13 -9 13 -5 -4z"/>
<path d="M4300 1551 c0 -14 -4 -10 108 -110 45 -40 86 -70 90 -66 4 3 -4 16
-18 26 -22 18 -152 134 -172 155 -5 4 -8 2 -8 -5z"/>
<path d="M4440 1554 c0 -5 9 -19 19 -30 97 -97 132 -127 138 -120 4 4 -12 25
-37 47 -25 22 -62 56 -82 77 -21 20 -38 32 -38 26z"/>
<path d="M8887 1502 c-10 -10 -17 -22 -17 -25 0 -9 33 -9 54 -1 21 8 21 24 0
24 -8 0 -12 5 -9 10 11 17 -11 11 -28 -8z"/>
<path d="M1667 1446 c-10 -70 -9 -256 2 -256 5 0 12 21 16 48 8 56 17 73 62
130 19 23 29 42 23 42 -6 0 -14 10 -19 22 -7 21 -8 20 -21 -9 -17 -37 -32 -27
-47 32 l-9 40 -7 -49z"/>
<path d="M3700 1480 c0 -6 7 -10 15 -10 8 0 15 2 15 4 0 2 -7 6 -15 10 -8 3
-15 1 -15 -4z"/>
<path d="M9309 1473 c-3 -22 2 -117 6 -121 3 -3 5 25 5 61 0 37 -2 67 -5 67
-3 0 -5 -3 -6 -7z"/>
<path d="M8492 1363 c-1 -62 1 -113 4 -113 11 0 34 29 34 43 0 8 -7 17 -15 20
-10 5 -15 27 -18 84 -2 66 -3 60 -5 -34z"/>
<path d="M9083 1430 c80 -41 107 -51 70 -25 -33 23 -119 65 -134 65 -8 0 21
-18 64 -40z"/>
<path d="M9200 1426 c0 -32 -4 -45 -15 -48 -12 -2 -10 -9 10 -32 13 -16 39
-51 56 -78 31 -47 32 -52 35 -183 3 -123 2 -135 -15 -145 -27 -14 -741 -12
-758 2 -7 6 -13 32 -13 60 0 27 -4 47 -8 44 -5 -3 -10 -64 -11 -135 -2 -97 1
-131 11 -137 7 -5 190 -9 406 -10 360 -1 392 0 392 16 0 21 -41 57 -72 63 -22
4 -22 4 3 6 32 1 69 39 70 72 l1 24 8 -25 c10 -30 9 -48 13 228 3 155 1 188
-9 170 -12 -22 -12 -21 -28 17 -34 80 -61 134 -68 135 -5 0 -8 -20 -8 -44z"/>
<path d="M8561 1393 c-17 -65 -17 -128 -2 -118 5 3 7 20 5 38 -3 17 1 51 10
75 8 23 11 42 6 42 -5 0 -14 -17 -19 -37z"/>
<path d="M4510 1362 c0 -6 7 -17 15 -24 9 -7 25 -22 35 -32 22 -22 35 -19 16
4 -23 30 -66 63 -66 52z"/>
<path d="M6765 1171 c-16 -33 -26 -63 -23 -66 7 -7 61 102 56 115 -2 7 -17
-16 -33 -49z"/>
<path d="M7053 1091 c-62 -44 -70 -51 -56 -51 5 0 20 9 33 20 13 11 28 20 34
20 12 0 50 39 44 45 -2 2 -27 -13 -55 -34z"/>
<path d="M7943 1110 c-13 -5 -23 -14 -23 -20 0 -6 -11 -16 -25 -22 -18 -8 -25
-19 -25 -40 0 -16 3 -27 8 -25 11 8 181 -12 201 -23 23 -12 83 -98 136 -195
60 -109 92 -151 122 -163 15 -5 84 -31 153 -56 69 -25 161 -59 205 -76 101
-38 128 -39 144 -4 6 15 10 28 9 29 -36 31 -307 175 -430 229 -43 19 -60 32
-73 60 -24 50 -44 65 -59 44 -11 -15 -13 -15 -25 4 -9 15 -10 23 -2 31 20 20
11 53 -36 128 -68 106 -72 108 -173 108 -47 0 -95 -4 -107 -9z"/>
<path d="M6705 1049 c-10 -30 0 -33 13 -4 6 14 7 25 2 25 -5 0 -12 -9 -15 -21z"/>
<path d="M6944 1015 c-10 -8 -14 -14 -9 -14 6 0 19 6 29 14 11 8 15 15 10 15
-6 0 -19 -7 -30 -15z"/>
<path d="M6520 750 c-14 -22 -30 -40 -37 -40 -7 0 -13 -4 -13 -9 0 -5 -8 -12
-17 -15 -35 -13 -63 -33 -113 -84 -28 -29 -54 -52 -58 -52 -4 0 -25 -25 -47
-56 -57 -79 -88 -114 -99 -114 -5 0 -18 7 -28 17 -30 27 -20 -1 11 -31 l29
-27 33 53 c33 53 96 132 151 190 15 15 56 46 90 68 35 22 68 44 75 50 7 5 15
10 18 10 7 0 105 71 105 76 0 2 -11 -1 -25 -6 -15 -6 -26 -6 -30 0 -11 17 -20
11 -45 -30z"/>
<path d="M6225 344 c-33 -35 -61 -69 -63 -74 -4 -12 -32 -13 -32 -2 0 8 -12
24 -50 70 -16 19 -58 14 -72 -8 -7 -11 -17 -20 -22 -20 -11 0 -66 -60 -66 -72
0 -4 0 -11 1 -14 0 -4 -3 -10 -8 -13 -12 -9 -34 -61 -25 -61 4 0 14 15 22 32
9 17 23 32 32 34 16 2 50 6 183 19 41 4 99 0 180 -15 173 -30 174 -30 195 -53
37 -39 32 -9 -13 86 -31 65 -57 104 -83 125 -48 39 -82 44 -41 6 16 -15 26
-32 23 -41 -3 -8 -1 -11 5 -8 14 9 34 -10 58 -56 27 -51 27 -52 -11 -45 -18 3
-51 9 -73 13 -22 4 -68 7 -102 6 -35 -1 -65 2 -68 7 -9 14 52 81 124 137 14
11 13 12 -9 12 -18 0 -42 -18 -85 -65z m-149 -39 c8 -19 19 -35 26 -35 6 0 9
-3 6 -6 -9 -8 -138 -15 -138 -7 0 8 76 83 85 83 3 0 13 -16 21 -35z"/>
<path d="M9034 396 c-3 -9 -1 -23 5 -30 12 -15 25 -21 274 -140 l159 -76 111
0 112 1 -90 38 c-49 21 -135 58 -190 81 -55 23 -144 62 -197 87 -111 51 -174
65 -184 39z"/>
<path d="M7928 275 c16 -30 41 -61 41 -50 0 6 -11 24 -25 40 -14 17 -21 21
-16 10z"/>
<path d="M5037 20 c3 -11 7 -20 9 -20 2 0 4 9 4 20 0 11 -4 20 -9 20 -5 0 -7
-9 -4 -20z"/>
<path d="M5277 20 c3 -11 7 -20 9 -20 2 0 4 9 4 20 0 11 -4 20 -9 20 -5 0 -7
-9 -4 -20z"/>
<path d="M5607 20 c3 -11 7 -20 9 -20 2 0 4 9 4 20 0 11 -4 20 -9 20 -5 0 -7
-9 -4 -20z"/>
</g>
</svg>
